P2
24 18
3
3 3 3 0 0 0 0 0 3 3 0 3    0 0 0 0 0 0 0 0 0 0 0 0
3 3 0 0 0 0 0 0 0 0 0 3    0 0 0 0 0 0 0 0 0 0 0 0
3 0 0 3 3 3 3 3 0 0 0 3    0 0 3 3 3 0 0 3 3 3 0 0
0 0 0 3 3 3 3 3 3 0 0 3    0 3 3 3 3 0 0 3 3 3 3 0
0 0 0 0 3 3 3 3 3 0 0 3    3 3 3 3 3 0 0 3 3 3 3 3
0 0 0 0 0 3 3 3 3 3 0 3    3 3 3 3 3 0 0 3 3 3 3 3
3 0 0 0 0 0 3 3 3 3 3 3    3 3 3 3 3 0 0 3 3 3 3 3
3 3 0 0 0 0 0 3 3 3 3 3    3 3 3 3 3 0 0 3 3 3 3 3
3 3 3 0 0 0 0 0 3 3 3 3    3 3 3 3 3 0 0 3 3 3 3 3
3 3 3 3 0 0 0 0 0 3 3 3    3 3 3 3 3 0 0 3 3 3 3 3
0 3 3 3 3 0 0 0 0 0 3 3    3 3 3 3 3 0 0 3 3 3 3 3
0 0 3 3 3 3 0 0 0 0 0 3    3 3 3 3 3 0 0 3 3 3 3 3
0 0 3 3 3 3 3 0 0 0 0 0    3 3 3 3 3 0 0 3 3 3 3 3
0 0 0 3 3 3 3 3 0 0 0 0    3 3 3 3 3 0 0 3 3 3 3 3
0 0 0 3 3 3 3 3 0 0 0 0    3 3 3 3 3 0 0 3 3 3 3 3
0 0 0 3 3 3 3 0 0 0 0 3    3 3 3 3 3 0 0 3 3 3 3 3
0 0 0 0 0 0 0 0 0 0 3 3    3 3 3 3 3 0 0 3 3 3 3 3
0 3 3 3 0 0 0 0 0 3 3 3    3 3 0 0 0 0 0 0 0 0 3 3